<svg width="47" height="46" viewBox="0 0 47 46" fill="none" xmlns="http://www.w3.org/2000/svg">
<path d="M5.17615 9.93341C6.59094 10.7249 8.16906 11.1797 9.78806 11.2627C10.2705 11.3183 10.7588 11.2374 11.1974 11.029C11.636 10.8206 12.0073 10.4932 12.2689 10.0841L13.748 7.2773C14.0105 6.77923 14.2636 5.71171 13.0089 4.16198C12.0615 3.06527 10.9082 2.16502 9.61437 1.51221C8.34472 0.814524 6.95057 0.372619 5.51084 0.211521C3.52173 0.0528997 2.78493 0.863454 2.52242 1.36232L1.04248 4.16832C0.0717209 6.0115 2.38759 8.46299 5.17615 9.93341ZM3.92621 2.10149C4.01425 1.93415 4.39097 1.7779 5.02863 1.7779C5.13887 1.7779 5.25704 1.78266 5.38394 1.79297C6.60868 1.94034 7.79353 2.32245 8.87361 2.91839C9.97627 3.47297 10.9616 4.23506 11.7756 5.16288C12.3141 5.82829 12.4473 6.34302 12.3434 6.5405C12.2395 6.73799 11.7383 6.91881 10.8865 6.84981C9.66181 6.70225 8.477 6.32015 7.39684 5.7244C6.29412 5.16921 5.30859 4.40691 4.49408 3.47912C3.95239 2.81053 3.81835 2.30532 3.92621 2.10149ZM2.44628 4.90829L2.92214 4.00653C3.02749 4.16923 3.14106 4.32647 3.26238 4.47764C4.20957 5.57453 5.36287 6.4748 6.65688 7.1274C7.92624 7.82617 9.32045 8.2689 10.7604 8.43047C10.9341 8.44475 11.0983 8.45109 11.2529 8.45109C11.2846 8.45109 11.31 8.45109 11.341 8.44633L10.8651 9.34651C10.605 9.84141 8.52702 9.90724 5.91611 8.5304C3.30521 7.15357 2.18535 5.40319 2.44628 4.90829Z" fill="#84888C"/>
<path d="M36.1006 36.5166C34.1662 37.0043 33.7284 38.01 33.642 38.566L33.1415 41.6987C33.0527 42.2539 33.155 43.3468 34.8403 44.412C36.0897 45.1471 37.4713 45.6297 38.9066 45.8324C39.5925 45.9425 40.2859 45.9987 40.9806 46.0005C43.3496 46.0005 45.4156 45.2986 45.6702 43.7005L46.1707 40.5678C46.2595 40.0126 46.1564 38.9189 44.4702 37.8546C41.9302 36.4217 38.9606 35.9473 36.1006 36.5174V36.5166ZM44.1046 43.4499C44.0166 44.0051 42.0695 44.73 39.1548 44.266C37.9339 44.0931 36.7576 43.6874 35.6898 43.0708C34.9625 42.6116 34.6738 42.1762 34.7103 41.9494L34.8689 40.9421C35.0216 41.0626 35.1804 41.1751 35.3448 41.2792C36.5939 42.014 37.9752 42.4963 39.4102 42.6988C40.0966 42.8096 40.7906 42.8661 41.4858 42.8678C42.4309 42.8835 43.372 42.7401 44.2696 42.4435L44.1046 43.4499ZM44.6043 40.3164C44.5162 40.8715 42.57 41.5996 39.6553 41.1333C38.4331 40.9615 37.2556 40.5557 36.187 39.938C35.4629 39.4812 35.1711 39.0363 35.206 38.8166C35.2409 38.5969 35.6533 38.2614 36.4876 38.0552C37.0956 37.9132 37.7184 37.8453 38.3427 37.853C38.95 37.8546 39.5562 37.9039 40.1557 38.0005C41.3768 38.1722 42.5533 38.5777 43.6208 39.1949C44.3513 39.6557 44.6408 40.0895 44.6043 40.3164Z" fill="#84888C"/>
<path d="M28.79 35.4808C27.9398 33.5774 24.581 33.8875 21.7036 35.1731C18.8262 36.4587 16.3549 38.7563 17.2043 40.6574L18.4986 43.5546C18.7239 44.0598 19.3877 44.8974 21.3031 44.8974H21.4046C22.8521 44.8307 24.2725 44.4804 25.585 43.8663C28.464 42.5807 30.9337 40.2839 30.0843 38.382L29.3602 38.7048L30.0843 38.3812L28.79 35.4808ZM18.6557 40.011C18.4273 39.5003 19.6582 37.8252 22.3531 36.6213C23.4955 36.0775 24.7371 35.773 26.0014 35.7267C26.7565 35.7267 27.2434 35.8956 27.3497 36.128C27.5773 36.6387 26.3464 38.313 23.6522 39.5169C20.9581 40.7209 18.8841 40.521 18.6557 40.011ZM24.9418 42.4141C23.8242 42.9387 22.616 43.243 21.3832 43.3103C20.5219 43.3254 20.0412 43.1105 19.95 42.9074L19.5392 41.989C19.6859 42.0009 19.8366 42.0073 19.9905 42.0073C21.4804 41.953 22.944 41.5988 24.2939 40.9659C25.8122 40.3355 27.1605 39.356 28.2293 38.1068L28.6393 39.0252C28.8693 39.536 27.636 41.2102 24.9418 42.4141Z" fill="#84888C"/>
<path d="M0.0445932 16.9886L6.29823 34.966C6.36733 35.1646 6.51252 35.3277 6.70186 35.4193C6.8912 35.511 7.10918 35.5236 7.30785 35.4545L8.55937 35.0191L11.0307 38.5833C11.1505 38.756 11.3339 38.8741 11.5407 38.9117C11.5872 38.9205 11.6345 38.925 11.6818 38.9251C11.8435 38.925 12.0012 38.8755 12.1339 38.7832L26.616 28.7377L43.2633 22.948C43.462 22.8789 43.625 22.7337 43.7167 22.5444C43.8083 22.3551 43.8209 22.1371 43.7518 21.9384L37.4974 3.95871C37.4283 3.76004 37.2831 3.59696 37.0938 3.50534C36.9044 3.41372 36.6865 3.40106 36.4878 3.47016L35.2371 3.90557L32.7657 0.341358C32.7064 0.25572 32.6308 0.182616 32.5432 0.126221C32.4555 0.0698257 32.3577 0.0312459 32.2552 0.0126854C32.1526 -0.00587508 32.0475 -0.00405232 31.9456 0.0180494C31.8438 0.040151 31.7473 0.0820984 31.6617 0.141495L17.1796 10.1878L0.532353 15.9774C0.43387 16.0117 0.343114 16.0651 0.265281 16.1345C0.187448 16.2039 0.124065 16.288 0.0787597 16.3819C0.0334547 16.4758 0.00711715 16.5777 0.00125444 16.6819C-0.00460827 16.786 0.0101189 16.8902 0.0445932 16.9886ZM11.8817 37.028L10.1147 34.4782L21.0333 30.68L11.8817 37.028ZM31.9139 1.89743L33.6818 4.44647L22.7623 8.24862L31.9139 1.89743ZM36.2602 5.22847L41.9935 21.7084L7.53468 33.6962L1.80291 17.2163L36.2602 5.22847Z" fill="#84888C"/>
<path d="M9.00192 31.4607C9.0905 31.4605 9.17843 31.4455 9.26206 31.4163L39.2248 20.9925C39.4235 20.9234 39.5865 20.7782 39.6782 20.5888C39.7698 20.3995 39.7824 20.1815 39.7133 19.9828L35.5432 7.99744C35.4739 7.79891 35.3287 7.63601 35.1394 7.54455C34.95 7.45308 34.7321 7.44054 34.5336 7.50968L4.57163 17.9335C4.37296 18.0026 4.20988 18.1477 4.11825 18.3371C4.02663 18.5264 4.01398 18.7444 4.08308 18.9431L8.25243 30.9317C8.30716 31.0866 8.40867 31.2208 8.54293 31.3155C8.67719 31.4103 8.83758 31.461 9.00192 31.4607ZM34.306 9.26799L37.9542 19.7552L9.48968 29.6579L5.84139 19.1707L34.306 9.26799Z" fill="#84888C"/>
<path d="M21.9016 23.4289C22.7423 23.4281 23.5611 23.1602 24.2396 22.6638C24.9182 22.1673 25.4214 21.4681 25.6766 20.667C25.9318 19.8659 25.9258 19.0045 25.6594 18.207C25.393 17.4096 24.8801 16.7174 24.1947 16.2305C23.5093 15.7436 22.6869 15.4871 21.8462 15.4981C21.0055 15.5092 20.1901 15.7871 19.5177 16.2918C18.8452 16.7965 18.3506 17.5018 18.1053 18.306C17.8599 19.1102 17.8764 19.9715 18.1525 20.7656C18.4217 21.545 18.9278 22.2208 19.6 22.6984C20.2722 23.1759 21.077 23.4313 21.9016 23.4289ZM21.1164 17.2157C21.5609 17.0611 22.0412 17.0418 22.4966 17.1602C22.9521 17.2786 23.3622 17.5293 23.6751 17.8808C23.988 18.2323 24.1897 18.6687 24.2546 19.1348C24.3195 19.6009 24.2447 20.0757 24.0397 20.4993C23.8348 20.9229 23.5088 21.2762 23.103 21.5145C22.6972 21.7529 22.2299 21.8655 21.7601 21.8383C21.2903 21.811 20.8392 21.645 20.4637 21.3613C20.0882 21.0777 19.8053 20.689 19.6507 20.2445C19.5455 19.9496 19.4999 19.6366 19.5168 19.3239C19.5337 19.0112 19.6127 18.705 19.7491 18.4231C19.8855 18.1412 20.0766 17.8892 20.3114 17.6819C20.5461 17.4747 20.8198 17.3161 21.1164 17.2157Z" fill="#84888C"/>
<path d="M37.2762 27.7591H35.6899V31.7246H37.2762V27.7591Z" fill="#84888C"/>
<path d="M40.4485 26.1729H38.8623V33.3108H40.4485V26.1729Z" fill="#84888C"/>
<path d="M1.58621 8.72455H0V13.4832H1.58621V8.72455Z" fill="#84888C"/>
<path d="M4.75906 11.1039H3.17285V12.6901H4.75906V11.1039Z" fill="#84888C"/>
</svg>
